<?xml version="1.0" standalone="no"?><!DOCTYPE svg PUBLIC "-//W3C//DTD SVG 1.1//EN" "http://www.w3.org/Graphics/SVG/1.1/DTD/svg11.dtd"><svg t="1597211772739" class="icon" viewBox="0 0 1024 1024" version="1.1" xmlns="http://www.w3.org/2000/svg" p-id="1662" width="64" height="64" xmlns:xlink="http://www.w3.org/1999/xlink"><defs><style type="text/css"></style></defs><path d="M512 1024A512 512 0 1 1 512 0a512 512 0 0 1 0 1024zM509.496889 170.666667c-69.404444 0-123.790222 19.683556-164.124445 59.050666C304.128 269.141333 284.444444 323.527111 284.444444 392.931556h106.951112c0-40.391111 7.452444-71.281778 23.381333-92.842667 18.773333-25.315556 47.786667-37.546667 88.177778-37.546667 31.857778 0 57.173333 8.476444 74.979555 26.282667 16.896 17.806222 26.282667 42.211556 26.282667 73.159111 0 23.438222-8.419556 45.909333-25.315556 66.56l-11.264 13.084444c-60.928 54.442667-97.507556 93.866667-109.738666 119.125334-13.084444 25.315556-18.773333 56.32-18.773334 91.932444v13.084445h107.861334v-13.084445c0-22.528 4.721778-43.178667 14.108444-61.895111a133.12 133.12 0 0 1 37.489778-45.966222c44.999111-39.367111 72.248889-64.682667 80.668444-74.069333 22.471111-30.037333 34.702222-68.494222 34.702223-115.370667 0-57.173333-18.773333-102.172444-56.32-134.997333C620.145778 186.595556 570.424889 170.666667 509.496889 170.666667z m-16.896 541.070222c-20.593778 0-37.489778 6.542222-50.631111 19.683555-15.018667 13.084444-21.560889 30.037333-21.560889 50.631112 0 20.650667 6.542222 37.546667 21.617778 50.631111 13.084444 13.141333 29.980444 20.650667 50.631111 20.650666 20.593778 0 37.489778-6.542222 52.451555-19.683555 13.141333-13.084444 20.650667-30.947556 20.650667-51.598222 0-20.593778-7.509333-37.546667-20.650667-50.631112a74.524444 74.524444 0 0 0-52.508444-19.683555z" p-id="1663" fill="#000000"></path></svg>